<?xml version="1.0" encoding="UTF-8" standalone="no"?>
<svg
   xmlns:dc="http://purl.org/dc/elements/1.1/"
   xmlns:cc="http://creativecommons.org/ns#"
   xmlns:rdf="http://www.w3.org/1999/02/22-rdf-syntax-ns#"
   xmlns:svg="http://www.w3.org/2000/svg"
   xmlns="http://www.w3.org/2000/svg"
   xmlns:sodipodi="http://sodipodi.sourceforge.net/DTD/sodipodi-0.dtd"
   xmlns:inkscape="http://www.inkscape.org/namespaces/inkscape"
   width="30mm"
   height="32mm"
   viewBox="0 0 30 32"
   version="1.1"
   id="svg1594"
   inkscape:version="1.0.2 (e86c8708, 2021-01-15)"
   sodipodi:docname="luna.svg">
  <defs
     id="defs1588" />
  <sodipodi:namedview
     id="base"
     pagecolor="#ffffff"
     bordercolor="#666666"
     borderopacity="1.0"
     inkscape:pageopacity="0.0"
     inkscape:pageshadow="2"
     inkscape:zoom="5.6"
     inkscape:cx="55.454639"
     inkscape:cy="61.198228"
     inkscape:document-units="mm"
     inkscape:current-layer="layer1"
     inkscape:document-rotation="0"
     showgrid="false"
     inkscape:window-width="1252"
     inkscape:window-height="919"
     inkscape:window-x="0"
     inkscape:window-y="25"
     inkscape:window-maximized="0" />
  <metadata
     id="metadata1591">
    <rdf:RDF>
      <cc:Work
         rdf:about="">
        <dc:format>image/svg+xml</dc:format>
        <dc:type
           rdf:resource="http://purl.org/dc/dcmitype/StillImage" />
        <dc:title></dc:title>
      </cc:Work>
    </rdf:RDF>
  </metadata>
  <g
     inkscape:label="Layer 1"
     inkscape:groupmode="layer"
     id="layer1">
    <g
       id="g3483"
       transform="translate(-66.344823,-16.379761)">
      <path
         style="fill:#f7b1f7;stroke-width:0.264583"
         d="M 77.768597,47.549404 C 77.488541,47.269348 77.3525,46.643193 77.351834,45.631175 l -9.79e-4,-1.502455 -0.51402,0.84301 c -0.631782,1.036127 -1.286862,1.405949 -2.490428,1.405949 -1.412274,0 -1.753534,-0.525944 -1.771935,-2.730879 -0.0087,-1.044631 -0.03848,-3.620289 -0.06615,-5.723684 l -0.0503,-3.824353 -1.5875,-0.879447 c -3.759342,-2.082608 -5.05403,-4.765595 -3.939911,-8.164691 0.239957,-0.732094 0.454243,-2.398056 0.491098,-3.818033 0.09318,-3.589978 0.791377,-4.756831 2.846308,-4.756831 0.488121,0 1.331373,0.226304 1.873894,0.502896 0.923391,0.470772 1.0833,0.477349 2.503339,0.102951 3.420568,-0.901845 8.255052,0.139625 10.719997,2.309357 2.640559,2.324312 3.417326,6.507231 1.945892,10.478696 -0.665118,1.795183 -0.679397,1.937872 -0.301188,3.009828 0.218366,0.618916 0.39703,1.332402 0.39703,1.585523 0,0.253121 0.239769,0.765038 0.53282,1.137592 l 0.532821,0.677372 2.576033,-1.214764 c 3.586237,-1.691139 5.089576,-1.592706 5.089576,0.333246 0,1.13892 -1.092685,2.098615 -4.049573,3.556701 l -2.247635,1.108343 -0.310801,1.236859 c -0.353247,1.40578 -2.12996,3.865209 -3.313866,4.587249 -0.966728,0.589587 -2.457964,0.627848 -3.23581,0.08302 -0.528572,-0.370227 -0.598536,-0.359866 -0.859228,0.127243 -0.785517,1.46775 -3.447311,2.352948 -4.35273,1.447527 z m -0.239385,-3.993949 c -0.09701,-0.09701 -0.176389,-0.01764 -0.176389,0.17639 0,0.194027 0.07937,0.273402 0.176389,0.17639 0.09701,-0.09701 0.09701,-0.255765 0,-0.35278 z m 3.188567,-10.983967 c 0.651452,-0.540657 0.680303,-1.953679 0.06735,-3.298491 l -0.585172,-1.28386 -0.223532,0.777978 c -0.142585,0.496252 -0.119197,0.903693 0.06458,1.125135 0.405268,0.488319 0.0644,1.914791 -0.641735,2.685542 l -0.591242,0.645345 0.79227,-0.190875 c 0.435748,-0.104982 0.938613,-0.31233 1.117478,-0.460774 z m -9.714956,-0.878185 c 0,-0.07276 -0.05953,-0.132291 -0.132292,-0.132291 -0.07276,0 -0.132292,0.05953 -0.132292,0.132291 0,0.07276 0.05953,0.132292 0.132292,0.132292 0.07276,0 0.132292,-0.05953 0.132292,-0.132292 z m -0.784441,-0.644064 c -0.352342,-0.658357 -0.355909,-2.845892 -0.005,-3.06277 0.147894,-0.0914 0.181333,-0.30679 0.07431,-0.478635 -0.107025,-0.171846 -0.159977,-0.580338 -0.117673,-0.90776 0.119992,-0.928696 -0.473704,-0.699223 -0.913363,0.353028 -0.48833,1.168739 -0.268154,3.007387 0.472954,3.949553 0.617391,0.784885 0.871095,0.860972 0.488766,0.146584 z m 8.138263,-0.831826 c 0.08277,-1.24495 -0.435714,-2.314803 -0.963684,-1.9885 -0.404465,0.249973 -0.391886,2.609934 0.01609,3.017906 0.543465,0.543465 0.866349,0.192705 0.947598,-1.029406 z m -6.295489,-1.319017 c 0,-1.368023 -0.319367,-1.80963 -0.937632,-1.296516 -0.450614,0.373977 -0.509418,1.909892 -0.10225,2.670692 0.46851,0.875417 1.039882,0.120364 1.039882,-1.374176 z"
         id="path3499" />
      <path
         style="fill:#f7c42c;stroke-width:0.264583"
         d="m 77.768597,47.549404 c -0.277155,-0.277153 -0.419306,-0.916693 -0.426368,-1.918229 l -0.01059,-1.502455 -0.37487,0.689698 c -0.51614,0.949608 -1.531276,1.559261 -2.596336,1.559261 -1.670753,0 -1.750828,-0.288674 -1.830842,-6.600226 l -0.07156,-5.644475 -1.719792,-1.041218 c -2.138538,-1.294741 -3.110644,-2.200693 -3.593546,-3.348998 -0.490443,-1.166239 -0.479296,-3.905608 0.02167,-5.3255 0.232097,-0.657833 0.396875,-2.048325 0.396875,-3.349055 0,-2.426374 0.422101,-3.84176 1.283124,-4.302566 0.816304,-0.436872 2.066804,-0.342373 3.213992,0.242879 0.977299,0.49858 1.123326,0.50613 2.55859,0.132291 3.961331,-1.031795 9.282727,0.347903 11.442887,2.966841 2.030628,2.461895 2.519556,6.44299 1.197216,9.74832 -0.605567,1.51368 -0.674206,1.925231 -0.435445,2.61088 0.155892,0.447673 0.409957,1.301059 0.564589,1.896414 0.154632,0.595354 0.50031,1.280799 0.768172,1.523212 0.458626,0.41505 0.624541,0.371442 2.845387,-0.747856 3.404875,-1.716043 5.136489,-1.627629 5.136489,0.262264 0,1.134054 -0.938747,1.959867 -3.899842,3.430673 -2.015353,1.001047 -2.471565,1.340449 -2.597999,1.932802 -0.262192,1.228389 -0.652805,1.993077 -1.740359,3.407034 -1.559362,2.027367 -3.555773,2.758419 -4.921177,1.802053 -0.537899,-0.376759 -0.606693,-0.359095 -1.01229,0.259924 -0.977227,1.491438 -3.295737,2.218272 -4.197975,1.316032 z m -0.239385,-3.993949 c -0.09701,-0.09701 -0.176389,-0.01764 -0.176389,0.17639 0,0.194027 0.07937,0.273402 0.176389,0.17639 0.09701,-0.09701 0.09701,-0.255765 0,-0.35278 z m 3.035445,-10.912733 c 0.825064,-0.668096 0.877159,-2.71389 0.09858,-3.871472 l -0.526039,-0.782113 -0.08768,0.595312 c -0.04822,0.327422 -0.21691,0.595313 -0.374863,0.595313 -0.157954,0 -0.09368,0.213821 0.142823,0.475158 0.608959,0.672892 0.307311,2.297628 -0.552083,2.973627 l -0.661027,0.519965 h 0.667828 c 0.367305,0 0.948909,-0.227606 1.292452,-0.50579 z m -6.312463,-0.684835 c -0.07291,-0.333051 -1.397288,-0.516894 -1.397288,-0.193963 0,0.409051 0.353793,0.616209 0.915154,0.535853 0.29703,-0.04252 0.51399,-0.19637 0.482134,-0.34189 z M 70.49286,31.128455 c -0.566194,-0.719799 -0.794703,-3.007027 -0.300422,-3.007027 0.219488,0 0.08822,-1.813691 -0.151484,-2.092996 -0.05127,-0.05974 -0.332075,0.10754 -0.624009,0.371737 -0.417941,0.378231 -0.530789,0.814773 -0.530789,2.053308 0,1.436069 0.07828,1.651235 0.899583,2.472535 1.068402,1.068401 1.481257,1.186598 0.707121,0.202443 z m 7.780099,-1.230297 c -0.0064,-1.609654 -0.151759,-1.925138 -0.776434,-1.685428 -0.503757,0.19331 -0.571701,2.549866 -0.08748,3.034089 0.587368,0.587368 0.869878,0.146338 0.863912,-1.348661 z m -6.211803,-1.023681 c 0,-0.946825 -0.114795,-1.342874 -0.423578,-1.461365 -0.232968,-0.0894 -0.528801,0.0036 -0.657407,0.206741 -0.323489,0.510884 -0.300183,2.01502 0.0411,2.652719 0.472195,0.882305 1.039882,0.119065 1.039882,-1.398095 z M 81.85074,23.39998 c 0,-1.172377 -1.609858,-4.142094 -2.245394,-4.142094 -0.693082,0 -1.129709,0.975605 -1.238652,2.767659 l -0.08783,1.444741 1.455209,0.311505 c 2.111072,0.4519 2.116667,0.450891 2.116667,-0.381811 z M 69.944489,22.030824 c 0.363802,-0.118606 0.99,-0.287571 1.39155,-0.375478 l 0.730091,-0.159831 -0.561512,-1.118814 c -1.045068,-2.0823 -2.317392,-2.939193 -2.741581,-1.846419 -0.09885,0.254662 -0.2496,1.286702 -0.334993,2.293422 -0.146395,1.7259 -0.12642,1.818765 0.349864,1.626584 0.277818,-0.1121 0.802779,-0.300859 1.166581,-0.419464 z"
         id="path3497" />
      <path
         style="fill:#9c66da;stroke-width:0.264583"
         d="m 77.768597,47.549404 c -0.277155,-0.277153 -0.419306,-0.916693 -0.426368,-1.918229 l -0.01059,-1.502455 -0.37487,0.689698 c -0.51614,0.949608 -1.531276,1.559261 -2.596336,1.559261 -1.670753,0 -1.750828,-0.288674 -1.830842,-6.600226 l -0.07156,-5.644475 -1.719792,-1.041218 c -2.138538,-1.294741 -3.110644,-2.200693 -3.593546,-3.348998 -0.490443,-1.166239 -0.479296,-3.905608 0.02167,-5.3255 0.232097,-0.657833 0.396875,-2.048325 0.396875,-3.349055 0,-2.426374 0.422101,-3.84176 1.283124,-4.302566 0.816304,-0.436872 2.066804,-0.342373 3.213992,0.242879 0.977299,0.49858 1.123326,0.50613 2.55859,0.132291 3.961331,-1.031795 9.282727,0.347903 11.442887,2.966841 2.030628,2.461895 2.519556,6.44299 1.197216,9.74832 -0.605567,1.51368 -0.674206,1.925231 -0.435445,2.61088 0.155892,0.447673 0.409957,1.301059 0.564589,1.896414 0.154632,0.595354 0.50031,1.280799 0.768172,1.523212 0.458626,0.41505 0.624541,0.371442 2.845387,-0.747856 3.404875,-1.716043 5.136489,-1.627629 5.136489,0.262264 0,1.134054 -0.938747,1.959867 -3.899842,3.430673 -2.015353,1.001047 -2.471565,1.340449 -2.597999,1.932802 -0.262192,1.228389 -0.652805,1.993077 -1.740359,3.407034 -1.559362,2.027367 -3.555773,2.758419 -4.921177,1.802053 -0.537899,-0.376759 -0.606693,-0.359095 -1.01229,0.259924 -0.977227,1.491438 -3.295737,2.218272 -4.197975,1.316032 z m -0.239385,-3.993949 c -0.09701,-0.09701 -0.176389,-0.01764 -0.176389,0.17639 0,0.194027 0.07937,0.273402 0.176389,0.17639 0.09701,-0.09701 0.09701,-0.255765 0,-0.35278 z m 3.035445,-10.912733 c 0.803594,-0.650711 0.876048,-2.705637 0.13526,-3.836223 l -0.489365,-0.746864 -0.329534,0.626209 c -0.182839,0.347447 -0.230003,0.738102 -0.105948,0.877563 0.487617,0.548177 0.237516,2.272311 -0.425846,2.935673 l -0.649432,0.649432 h 0.620121 c 0.341066,0 0.901201,-0.227606 1.244744,-0.50579 z m -6.312463,-0.684835 c -0.07291,-0.333051 -1.397288,-0.516894 -1.397288,-0.193963 0,0.409051 0.353793,0.616209 0.915154,0.535853 0.29703,-0.04252 0.51399,-0.19637 0.482134,-0.34189 z m -3.658273,-0.781724 c -0.49902,-0.49902 -0.649432,-0.927972 -0.649432,-1.852083 0,-0.661458 0.111577,-1.202652 0.247949,-1.202652 0.219488,0 0.08822,-1.813691 -0.151484,-2.092996 -0.05127,-0.05974 -0.332075,0.10754 -0.624009,0.371737 -0.417941,0.378231 -0.530789,0.814773 -0.530789,2.053308 0,1.436069 0.07828,1.651235 0.899583,2.472535 0.494771,0.49477 1.02514,0.899583 1.178599,0.899583 0.153458,0 -0.01323,-0.292244 -0.370417,-0.649432 z m 7.679038,-1.259402 c -0.0064,-1.627945 -0.150523,-1.944215 -0.776434,-1.704031 -0.283346,0.10873 -0.408286,0.516936 -0.408286,1.333963 0,1.498868 0.21948,2.062618 0.760896,1.954414 0.33677,-0.0673 0.428452,-0.41003 0.423824,-1.584346 z m -6.211803,-0.905903 c 0,-1.071874 -0.107231,-1.476353 -0.423578,-1.597746 -0.574429,-0.220429 -0.890423,0.361091 -0.895287,1.647587 -0.0044,1.15308 0.368993,1.749865 0.954231,1.525288 0.247779,-0.09508 0.364634,-0.599867 0.364634,-1.575129 z m 3.141103,-1.71101 c 1.56716,-0.546315 1.858341,-2.224851 0.54783,-3.158017 -0.903162,-0.643108 -1.324139,-0.499929 -0.834646,0.283873 0.469501,0.751792 0.393761,1.256762 -0.239321,1.595577 -0.44589,0.238633 -0.645861,0.213895 -0.981132,-0.121375 -0.348772,-0.348773 -0.372505,-0.603146 -0.138182,-1.481038 0.339162,-1.270673 0.11009,-1.340155 -0.810674,-0.24589 -0.886015,1.05297 -0.864632,1.692834 0.08842,2.645886 0.85346,0.85346 1.135099,0.910673 2.367705,0.480984 z M 81.85074,23.39998 c 0,-1.172377 -1.609858,-4.142094 -2.245394,-4.142094 -0.693082,0 -1.129709,0.975605 -1.238652,2.767659 l -0.08783,1.444741 1.455209,0.311505 c 2.111072,0.4519 2.116667,0.450891 2.116667,-0.381811 z M 69.944489,22.030824 c 0.363802,-0.118606 0.99,-0.287571 1.39155,-0.375478 l 0.730091,-0.159831 -0.561512,-1.118814 c -1.045068,-2.0823 -2.317392,-2.939193 -2.741581,-1.846419 -0.09885,0.254662 -0.2496,1.286702 -0.334993,2.293422 -0.146395,1.7259 -0.12642,1.818765 0.349864,1.626584 0.277818,-0.1121 0.802779,-0.300859 1.166581,-0.419464 z"
         id="path3495" />
      <path
         style="fill:#fb7639;stroke-width:0.264583"
         d="m 77.754091,47.440867 c -0.39286,-0.434107 -0.450086,-0.832413 -0.332618,-2.315104 l 0.141877,-1.790793 -0.536724,1.135571 c -0.585286,1.238313 -1.574478,1.907138 -2.820661,1.907138 -1.491925,0 -1.615642,-0.518735 -1.615642,-6.774202 v -5.598125 l -1.435021,-0.726054 c -3.136455,-1.586901 -4.369408,-3.271514 -4.380002,-5.9845 -0.0032,-0.818449 0.172783,-1.994278 0.391064,-2.612953 0.238971,-0.677314 0.396875,-2.06325 0.396875,-3.483389 0,-4.180237 1.32581,-5.493194 4.284655,-4.243118 1.242936,0.525125 1.380304,0.531327 3.203339,0.144633 2.675874,-0.567594 4.879907,-0.358297 7.389861,0.701747 2.484199,1.049167 3.728278,2.20426 4.768713,4.427619 0.733165,1.566737 0.780847,1.85501 0.681329,4.119092 -0.07954,1.809601 -0.257274,2.744521 -0.692451,3.642472 -0.321995,0.664408 -0.585445,1.3603 -0.585445,1.546427 0,0.822667 1.140537,3.984813 1.581051,4.383473 0.456063,0.412731 0.581216,0.391014 2.032158,-0.352622 3.429084,-1.757471 5.115268,-2.090689 5.637899,-1.114145 0.788271,1.4729 0.07222,2.350673 -3.460828,4.242466 -2.569055,1.375617 -2.748669,1.525443 -2.892969,2.413197 -0.198876,1.223511 -0.982273,2.465658 -2.475771,3.925557 -1.09082,1.066279 -1.319147,1.172861 -2.550627,1.190625 -0.973139,0.01402 -1.443038,-0.104116 -1.675103,-0.421193 -0.291472,-0.398243 -0.368948,-0.37166 -0.804181,0.275916 -1.131756,1.683925 -3.323223,2.3852 -4.250778,1.360265 z m 2.12685,-1.526209 0.205759,-0.992188 0.156707,0.791978 0.156707,0.791977 0.577271,-0.810702 c 0.317499,-0.445886 0.693325,-1.338056 0.835169,-1.982602 0.422779,-1.921129 0.879561,-6.693054 0.68837,-7.191289 -0.127551,-0.332392 -0.471431,-0.462904 -1.219685,-0.462904 -1.572974,0 -2.252833,0.818898 -2.440416,2.939509 -0.296782,3.355095 -0.345601,5.791742 -0.116038,5.791742 0.128786,0 0.110904,0.230298 -0.03974,0.511773 -0.492636,0.920496 -0.339918,1.604893 0.35812,1.604893 0.517357,0 0.66934,-0.179996 0.837772,-0.992187 z m -4.721448,-1.124479 c 0.07611,-0.291042 0.29035,-0.529167 0.476089,-0.529167 0.783773,0 0.872857,-1.715062 0.16203,-3.119395 -0.273283,-0.539906 -0.575102,-1.398366 -0.670709,-1.907689 -0.154921,-0.825306 -0.09749,-0.77246 0.52795,0.485806 0.412682,0.830237 1.043214,1.619818 1.530604,1.916691 l 0.828824,0.504844 0.177332,-0.852409 c 0.09753,-0.468825 0.180502,-1.515048 0.184376,-2.324941 l 0.007,-1.472533 -0.866786,0.101192 c -0.476733,0.05566 -1.504046,-0.08805 -2.282919,-0.319354 -0.778873,-0.2313 -1.454053,-0.420546 -1.500401,-0.420546 -0.04635,0 -0.08427,1.733434 -0.08427,3.852074 0,2.500673 0.09282,3.794705 0.264583,3.688552 0.145521,-0.08994 0.264584,0.08163 0.264584,0.381259 0,0.707287 0.797477,0.719971 0.98167,0.01561 z m 9.181146,-0.132292 c 0.09131,-0.363802 0.290833,-0.661458 0.443388,-0.661458 0.156966,0 0.204466,0.229708 0.109421,0.529166 -0.260397,0.820439 0.292082,0.636659 1.537691,-0.511503 1.318082,-1.214964 2.298767,-3.023803 2.298767,-4.239991 0,-1.122846 -0.67827,-2.520315 -1.477383,-3.043914 -0.590605,-0.386979 -0.716514,-0.37803 -1.693436,0.120359 -1.2296,0.627294 -1.953151,1.859007 -2.340439,3.984163 -0.144527,0.79306 -0.219911,1.485401 -0.16752,1.538535 0.05239,0.05313 0.720083,-0.214757 1.483758,-0.595312 0.763677,-0.380556 1.692547,-0.684373 2.064157,-0.675149 l 0.675655,0.01677 -0.575389,0.231916 c -1.442392,0.58137 -2.749056,1.644675 -3.124082,2.542239 -0.218932,0.523976 -0.33229,1.059098 -0.251908,1.18916 0.286223,0.463118 0.853946,0.225954 1.01732,-0.424981 z m 9.406421,-7.932469 c 1.580941,-0.801123 1.817513,-1.131295 1.021556,-1.425738 -0.624242,-0.230922 -1.391661,-0.08657 -2.64854,0.498203 -0.676515,0.314752 -0.691028,0.361021 -0.300299,0.95735 0.225815,0.344636 0.460368,0.626612 0.52123,0.626612 0.06086,0 0.693585,-0.295392 1.406053,-0.656427 z M 81.117905,32.194435 c 0.156185,-0.342789 0.483066,-0.686442 0.726402,-0.763673 0.243336,-0.07723 0.774654,-0.48719 1.180707,-0.911017 0.960208,-1.002241 1.153226,-2.595986 0.561087,-4.632874 -0.400611,-1.378054 -0.403386,-1.576318 -0.03004,-2.146114 0.22624,-0.345287 0.411346,-0.934748 0.411346,-1.309914 0,-0.759864 -1.788568,-3.293994 -2.786259,-3.947706 -1.125686,-0.737578 -1.291268,-0.442683 -0.294816,0.525059 1.149982,1.116848 1.938347,2.569123 2.064024,3.802209 0.158006,1.550292 -0.438824,1.159594 -1.331473,-0.871611 -0.473737,-1.077978 -1.160746,-2.241236 -1.526689,-2.585017 l -0.66535,-0.625057 -0.364017,0.497815 c -0.200209,0.273799 -0.495301,1.166767 -0.65576,1.984375 -0.380877,1.940741 -0.456276,2.148018 -0.781356,2.148018 -0.150088,0 -0.272887,-0.528754 -0.272887,-1.17501 0,-0.646256 -0.122124,-1.250486 -0.271386,-1.342736 -0.149262,-0.09225 -0.932818,-0.235991 -1.741237,-0.319427 -1.32929,-0.137195 -1.527965,-0.242833 -2.077546,-1.10466 -0.538383,-0.844267 -2.259831,-2.172786 -2.259831,-1.744014 0,0.0907 0.281213,0.543913 0.624918,1.007146 0.568371,0.76603 1.227165,2.304673 1.227165,2.8661 0,0.649925 -0.594872,0.0436 -1.353291,-1.379335 -0.713072,-1.337859 -1.772024,-2.364314 -2.439169,-2.364314 -0.274149,0 -0.516938,1.398616 -0.734876,4.233333 -0.12866,1.67349 -0.305122,3.66621 -0.392137,4.428266 -0.125888,1.102498 -0.04178,1.626073 0.411717,2.562867 0.565763,1.16871 2.389562,3.063034 2.948999,3.063034 0.160492,0 -0.07798,-0.345425 -0.529929,-0.767611 -0.688852,-0.643485 -0.821731,-0.96437 -0.821731,-1.984376 0,-0.669219 0.107733,-1.216763 0.239407,-1.216763 0.131673,0 0.175528,-0.47625 0.09745,-1.058333 -0.184774,-1.377591 0.423956,-1.348279 1.499487,0.0722 0.311027,0.410782 0.297874,0.447092 -0.105835,0.292174 -0.273732,-0.10504 -0.555989,-0.02689 -0.694831,0.192381 -0.334323,0.527994 -0.296616,2.457724 0.05489,2.809233 0.574921,0.574922 1.025396,0.05459 1.048834,-1.211486 0.02144,-1.157976 0.03666,-1.182919 0.265299,-0.434713 0.258623,0.846327 0.08765,2.16748 -0.350968,2.711952 -0.426054,0.528881 1.25461,1.072173 3.730225,1.205834 l 2.184415,0.117939 -0.526982,-0.562654 c -1.758053,-1.877059 -1.211188,-5.259009 0.850388,-5.259009 1.247364,0 2.340112,1.529942 1.474744,2.064769 -0.207127,0.128012 -0.207127,0.258279 0,0.465407 0.424309,0.424308 0.349455,2.09247 -0.124241,2.768765 -0.226533,0.323421 -0.673017,0.599906 -0.992187,0.614412 -0.535947,0.02436 -0.529743,0.04108 0.08115,0.218801 0.914856,0.266144 2.102064,-0.188226 2.442166,-0.934668 z m -7.822027,-2.132729 c -0.276981,-0.276981 -0.206097,-1.411111 0.08819,-1.411111 0.145521,0 0.264583,0.357187 0.264583,0.79375 0,0.822025 -0.05386,0.916279 -0.352778,0.617361 z m 1.411111,-2.601736 c 0,-0.07276 0.05953,-0.132292 0.132292,-0.132292 0.07276,0 0.132292,0.05953 0.132292,0.132292 0,0.07276 -0.05953,0.132292 -0.132292,0.132292 -0.07276,0 -0.132292,-0.05953 -0.132292,-0.132292 z m -2.116666,-0.529167 c 0,-0.07276 0.05953,-0.132291 0.132291,-0.132291 0.07276,0 0.132292,0.05953 0.132292,0.132291 0,0.07276 -0.05953,0.132292 -0.132292,0.132292 -0.07276,0 -0.132291,-0.05953 -0.132291,-0.132292 z m 3.704166,-0.529166 c 0,-0.07276 0.05953,-0.132292 0.132292,-0.132292 0.07276,0 0.132292,0.05953 0.132292,0.132292 0,0.07276 -0.05953,0.132291 -0.132292,0.132291 -0.07276,0 -0.132292,-0.05953 -0.132292,-0.132291 z m -4.233333,-0.264584 c 0,-0.07276 0.05953,-0.132291 0.132292,-0.132291 0.07276,0 0.132291,0.05953 0.132291,0.132291 0,0.07276 -0.05953,0.132292 -0.132291,0.132292 -0.07276,0 -0.132292,-0.05953 -0.132292,-0.132292 z m 1.852083,0 c 0,-0.07276 0.05953,-0.132291 0.132292,-0.132291 0.07276,0 0.132292,0.05953 0.132292,0.132291 0,0.07276 -0.05953,0.132292 -0.132292,0.132292 -0.07276,0 -0.132292,-0.05953 -0.132292,-0.132292 z m -1.852083,-1.322916 c 0,-0.07276 0.05953,-0.132292 0.132292,-0.132292 0.07276,0 0.132291,0.05953 0.132291,0.132292 0,0.07276 -0.05953,0.132291 -0.132291,0.132291 -0.07276,0 -0.132292,-0.05953 -0.132292,-0.132291 z m 2.910417,0 c 0,-0.07276 0.05953,-0.132292 0.132291,-0.132292 0.07276,0 0.132292,0.05953 0.132292,0.132292 0,0.07276 -0.05953,0.132291 -0.132292,0.132291 -0.07276,0 -0.132291,-0.05953 -0.132291,-0.132291 z m -1.5875,-0.264584 c 0,-0.07276 0.05953,-0.132291 0.132291,-0.132291 0.07276,0 0.132292,0.05953 0.132292,0.132291 0,0.07276 -0.05953,0.132292 -0.132292,0.132292 -0.07276,0 -0.132291,-0.05953 -0.132291,-0.132292 z m -0.79375,-0.529167 c 0,-0.07276 0.05953,-0.132291 0.132291,-0.132291 0.07276,0 0.132292,0.05953 0.132292,0.132291 0,0.07276 -0.05953,0.132292 -0.132292,0.132292 -0.07276,0 -0.132291,-0.05953 -0.132291,-0.132292 z m 2.910416,0 c 0,-0.07276 0.05953,-0.132291 0.132292,-0.132291 0.07276,0 0.132292,0.05953 0.132292,0.132291 0,0.07276 -0.05953,0.132292 -0.132292,0.132292 -0.07276,0 -0.132292,-0.05953 -0.132292,-0.132292 z m -1.852083,-0.264583 c 0,-0.07276 0.05953,-0.132292 0.132292,-0.132292 0.07276,0 0.132291,0.05953 0.132291,0.132292 0,0.07276 -0.05953,0.132292 -0.132291,0.132292 -0.07276,0 -0.132292,-0.05953 -0.132292,-0.132292 z m 0.79375,-1.472602 c 0,-0.457378 0.526129,-1.305523 0.809854,-1.305523 0.144138,0 0.07736,0.357188 -0.148396,0.79375 -0.423571,0.819097 -0.661458,1.003151 -0.661458,0.511773 z m 3.830553,7.63356 c -0.0064,-1.627945 -0.150523,-1.944215 -0.776434,-1.704031 -0.283346,0.10873 -0.408286,0.516936 -0.408286,1.333963 0,1.498868 0.21948,2.062618 0.760896,1.954414 0.33677,-0.0673 0.428452,-0.41003 0.423824,-1.584346 z"
         id="path3493" />
      <path
         style="fill:#6549cf;stroke-width:0.264583"
         d="m 77.754091,47.440867 c -0.39286,-0.434107 -0.450086,-0.832413 -0.332618,-2.315104 l 0.141877,-1.790793 -0.536724,1.135571 c -0.585286,1.238313 -1.574478,1.907138 -2.820661,1.907138 -1.491925,0 -1.615642,-0.518735 -1.615642,-6.774202 v -5.598125 l -1.435021,-0.726054 c -3.136455,-1.586901 -4.369408,-3.271514 -4.380002,-5.9845 -0.0032,-0.818449 0.172783,-1.994278 0.391064,-2.612953 0.238971,-0.677314 0.396875,-2.06325 0.396875,-3.483389 0,-4.180237 1.32581,-5.493194 4.284655,-4.243118 1.242936,0.525125 1.380304,0.531327 3.203339,0.144633 2.675874,-0.567594 4.879907,-0.358297 7.389861,0.701747 2.484199,1.049167 3.728278,2.20426 4.768713,4.427619 0.733165,1.566737 0.780847,1.85501 0.681329,4.119092 -0.07954,1.809601 -0.257274,2.744521 -0.692451,3.642472 -0.321995,0.664408 -0.585445,1.3603 -0.585445,1.546427 0,0.822667 1.140537,3.984813 1.581051,4.383473 0.456063,0.412731 0.581216,0.391014 2.032158,-0.352622 3.429084,-1.757471 5.115268,-2.090689 5.637899,-1.114145 0.788271,1.4729 0.07222,2.350673 -3.460828,4.242466 -2.569055,1.375617 -2.748669,1.525443 -2.892969,2.413197 -0.198876,1.223511 -0.982273,2.465658 -2.475771,3.925557 -1.09082,1.066279 -1.319147,1.172861 -2.550627,1.190625 -0.973139,0.01402 -1.443038,-0.104116 -1.675103,-0.421193 -0.291472,-0.398243 -0.368948,-0.37166 -0.804181,0.275916 -1.131756,1.683925 -3.323223,2.3852 -4.250778,1.360265 z m 2.12685,-1.526209 0.205759,-0.992188 0.156707,0.791978 0.156707,0.791977 0.577271,-0.810702 c 0.317499,-0.445886 0.693325,-1.338056 0.835169,-1.982602 0.422779,-1.921129 0.879561,-6.693054 0.68837,-7.191289 -0.127551,-0.332392 -0.471431,-0.462904 -1.219685,-0.462904 -1.572974,0 -2.252833,0.818898 -2.440416,2.939509 -0.296782,3.355095 -0.345601,5.791742 -0.116038,5.791742 0.128786,0 0.110904,0.230298 -0.03974,0.511773 -0.492636,0.920496 -0.339918,1.604893 0.35812,1.604893 0.517357,0 0.66934,-0.179996 0.837772,-0.992187 z m -4.721448,-1.124479 c 0.07611,-0.291042 0.29035,-0.529167 0.476089,-0.529167 0.783773,0 0.872857,-1.715062 0.16203,-3.119395 -0.273283,-0.539906 -0.575102,-1.398366 -0.670709,-1.907689 -0.154921,-0.825306 -0.09749,-0.77246 0.52795,0.485806 0.412682,0.830237 1.043214,1.619818 1.530604,1.916691 l 0.828824,0.504844 0.177332,-0.852409 c 0.09753,-0.468825 0.180502,-1.515048 0.184376,-2.324941 l 0.007,-1.472533 -0.866786,0.101192 c -0.476733,0.05566 -1.504046,-0.08805 -2.282919,-0.319354 -0.778873,-0.2313 -1.454053,-0.420546 -1.500401,-0.420546 -0.04635,0 -0.08427,1.733434 -0.08427,3.852074 0,2.500673 0.09282,3.794705 0.264583,3.688552 0.145521,-0.08994 0.264584,0.08163 0.264584,0.381259 0,0.707287 0.797477,0.719971 0.98167,0.01561 z m 9.181146,-0.132292 c 0.09131,-0.363802 0.290833,-0.661458 0.443388,-0.661458 0.156966,0 0.204466,0.229708 0.109421,0.529166 -0.260397,0.820439 0.292082,0.636659 1.537691,-0.511503 1.318082,-1.214964 2.298767,-3.023803 2.298767,-4.239991 0,-1.122846 -0.67827,-2.520315 -1.477383,-3.043914 -0.590605,-0.386979 -0.716514,-0.37803 -1.693436,0.120359 -1.2296,0.627294 -1.953151,1.859007 -2.340439,3.984163 -0.144527,0.79306 -0.219911,1.485401 -0.16752,1.538535 0.05239,0.05313 0.720083,-0.214757 1.483758,-0.595312 0.763677,-0.380556 1.692547,-0.684373 2.064157,-0.675149 l 0.675655,0.01677 -0.575389,0.231916 c -1.442392,0.58137 -2.749056,1.644675 -3.124082,2.542239 -0.218932,0.523976 -0.33229,1.059098 -0.251908,1.18916 0.286223,0.463118 0.853946,0.225954 1.01732,-0.424981 z m 9.406421,-7.932469 c 1.580941,-0.801123 1.817513,-1.131295 1.021556,-1.425738 -0.624242,-0.230922 -1.391661,-0.08657 -2.64854,0.498203 -0.676515,0.314752 -0.691028,0.361021 -0.300299,0.95735 0.225815,0.344636 0.460368,0.626612 0.52123,0.626612 0.06086,0 0.693585,-0.295392 1.406053,-0.656427 z M 81.117905,32.194435 c 0.156185,-0.342789 0.483066,-0.686442 0.726402,-0.763673 0.243336,-0.07723 0.774654,-0.48719 1.180707,-0.911017 0.960208,-1.002241 1.153226,-2.595986 0.561087,-4.632874 -0.400611,-1.378054 -0.403386,-1.576318 -0.03004,-2.146114 0.22624,-0.345287 0.411346,-0.934748 0.411346,-1.309914 0,-0.759864 -1.788568,-3.293994 -2.786259,-3.947706 -1.125686,-0.737578 -1.291268,-0.442683 -0.294816,0.525059 1.149982,1.116848 1.938347,2.569123 2.064024,3.802209 0.158006,1.550292 -0.438824,1.159594 -1.331473,-0.871611 -0.473737,-1.077978 -1.160746,-2.241236 -1.526689,-2.585017 l -0.66535,-0.625057 -0.364017,0.497815 c -0.200209,0.273799 -0.495301,1.166767 -0.65576,1.984375 -0.380877,1.940741 -0.456276,2.148018 -0.781356,2.148018 -0.150088,0 -0.272887,-0.528754 -0.272887,-1.17501 0,-0.646256 -0.122124,-1.250486 -0.271386,-1.342736 -0.149262,-0.09225 -0.932818,-0.235991 -1.741237,-0.319427 -1.32929,-0.137195 -1.527965,-0.242833 -2.077546,-1.10466 -0.538383,-0.844267 -2.259831,-2.172786 -2.259831,-1.744014 0,0.0907 0.281213,0.543913 0.624918,1.007146 0.568371,0.76603 1.227165,2.304673 1.227165,2.8661 0,0.649925 -0.594872,0.0436 -1.353291,-1.379335 -0.713072,-1.337859 -1.772024,-2.364314 -2.439169,-2.364314 -0.274149,0 -0.516938,1.398616 -0.734876,4.233333 -0.12866,1.67349 -0.305122,3.66621 -0.392137,4.428266 -0.125888,1.102498 -0.04178,1.626073 0.411717,2.562867 0.659629,1.362613 2.530259,3.167775 3.068591,2.961198 0.202326,-0.07764 0.763962,0.02434 1.248081,0.226614 0.484119,0.202278 1.82649,0.428062 2.983046,0.501741 1.156556,0.07368 2.460017,0.241573 2.89658,0.373097 1.0398,0.313262 2.209054,-0.09339 2.574456,-0.895359 z m -7.822027,-2.132729 c -0.276981,-0.276981 -0.206097,-1.411111 0.08819,-1.411111 0.145521,0 0.264583,0.357187 0.264583,0.79375 0,0.822025 -0.05386,0.916279 -0.352778,0.617361 z m 1.146528,-7.778505 c 0,-0.457378 0.526129,-1.305523 0.809854,-1.305523 0.144138,0 0.07736,0.357188 -0.148396,0.79375 -0.423571,0.819097 -0.661458,1.003151 -0.661458,0.511773 z"
         id="path3491" />
      <path
         style="fill:#4a39a9;stroke-width:0.264583"
         d="m 77.754091,47.440867 c -0.39286,-0.434107 -0.450086,-0.832413 -0.332618,-2.315104 l 0.141877,-1.790793 -0.536724,1.135571 c -0.585286,1.238313 -1.574478,1.907138 -2.820661,1.907138 -1.491925,0 -1.615642,-0.518735 -1.615642,-6.774202 v -5.598125 l -1.435021,-0.726054 c -3.136455,-1.586901 -4.369408,-3.271514 -4.380002,-5.9845 -0.0032,-0.818449 0.172783,-1.994278 0.391064,-2.612953 0.238971,-0.677314 0.396875,-2.06325 0.396875,-3.483389 0,-4.180237 1.32581,-5.493194 4.284655,-4.243118 1.242936,0.525125 1.380304,0.531327 3.203339,0.144633 2.675874,-0.567594 4.879907,-0.358297 7.389861,0.701747 2.484199,1.049167 3.728278,2.20426 4.768713,4.427619 0.733165,1.566737 0.780847,1.85501 0.681329,4.119092 -0.07954,1.809601 -0.257274,2.744521 -0.692451,3.642472 -0.321995,0.664408 -0.585445,1.3603 -0.585445,1.546427 0,0.822667 1.140537,3.984813 1.581051,4.383473 0.456063,0.412731 0.581216,0.391014 2.032158,-0.352622 3.429084,-1.757471 5.115268,-2.090689 5.637899,-1.114145 0.788271,1.4729 0.07222,2.350673 -3.460828,4.242466 -2.569055,1.375617 -2.748669,1.525443 -2.892969,2.413197 -0.198876,1.223511 -0.982273,2.465658 -2.475771,3.925557 -1.09082,1.066279 -1.319147,1.172861 -2.550627,1.190625 -0.973139,0.01402 -1.443038,-0.104116 -1.675103,-0.421193 -0.291472,-0.398243 -0.368948,-0.37166 -0.804181,0.275916 -1.131756,1.683925 -3.323223,2.3852 -4.250778,1.360265 z m 2.841181,-1.412859 c 0.483361,-0.483362 1.022127,-1.357093 1.197257,-1.941626 0.293067,-0.97817 0.482788,-1.139921 2.382879,-2.031579 2.203381,-1.033983 3.534055,-1.342729 1.772455,-0.411249 -2.141194,1.132198 -2.811278,1.798707 -2.722972,2.708443 0.153309,1.579409 1.967074,1.133382 3.945479,-0.970243 0.810708,-0.862021 1.559536,-2.670574 1.559536,-3.766556 0,-1.125356 -0.923574,-2.930145 -1.588432,-3.104009 -0.274706,-0.07184 -0.526722,-0.493531 -0.632767,-1.058799 -0.09693,-0.516678 -0.359612,-1.556914 -0.583741,-2.311636 L 85.51746,31.768533 84.883816,32.36381 c -0.348504,0.327403 -1.203282,0.78812 -1.899506,1.023815 -0.745392,0.25234 -1.265862,0.588952 -1.265862,0.818692 0,0.214586 -0.234335,0.435285 -0.520745,0.490442 -0.461929,0.08896 -0.478677,0.0496 -0.148281,-0.348504 0.343598,-0.41401 0.291685,-0.431754 -0.669881,-0.228954 -0.573289,0.12091 -2.248685,0.205642 -3.723102,0.188293 l -2.680759,-0.03154 -0.163512,1.19295 c -0.210788,1.537866 -0.213057,8.884201 -0.0029,9.431828 0.230167,0.599808 1.06487,0.515961 1.757354,-0.176522 0.449779,-0.449779 0.595104,-0.9017 0.595313,-1.851263 2.91e-4,-1.364663 0.06758,-1.411292 1.361367,-0.943453 1.117766,0.404189 1.211943,0.699659 0.881769,2.766464 -0.150133,0.939794 -0.203152,1.821685 -0.117821,1.959755 0.328702,0.53185 1.454646,0.225584 2.308035,-0.627803 z M 74.37626,36.964609 c -0.10914,-0.110069 -0.198437,-0.442219 -0.198437,-0.738111 0,-0.389409 0.07992,-0.458063 0.289396,-0.24859 0.159167,0.159167 0.248464,0.491318 0.198437,0.738111 -0.05003,0.246793 -0.180255,0.358659 -0.289396,0.24859 z m 5.097281,-0.839535 c 0.0074,-0.362127 0.493793,-0.979413 0.649249,-0.823957 0.208425,0.208426 -0.123584,1.022395 -0.417025,1.022395 -0.129951,0 -0.234452,-0.0893 -0.232224,-0.198438 z m 2.948142,-1.653646 c 0,-0.363802 0.06005,-0.51263 0.133452,-0.330729 0.0734,0.181901 0.0734,0.479558 0,0.661459 -0.0734,0.181901 -0.133452,0.03307 -0.133452,-0.33073 z m 10.190564,2.850034 c 1.334922,-0.686119 2.499116,-1.363964 2.587098,-1.50632 0.240969,-0.389896 -0.850906,-0.868849 -1.518495,-0.666091 -1.002436,0.304458 -4.421967,1.995669 -4.418164,2.18511 0.01247,0.620999 0.375358,1.383712 0.625909,1.315508 0.163086,-0.04439 1.388729,-0.642087 2.723652,-1.328207 z M 80.926164,32.883509 c 3.055582,-0.873818 4.341676,-1.784296 5.21055,-3.688759 1.082937,-2.373663 0.168726,-7.517784 -1.622592,-9.130062 l -0.573428,-0.516116 0.542522,1.265655 c 0.298388,0.696111 0.542524,1.493909 0.542524,1.772886 0,0.885224 -0.530202,0.548688 -1.051481,-0.667406 -0.57946,-1.351825 -2.870838,-3.852446 -3.530087,-3.852446 -0.636425,0 -0.561144,0.179227 0.447116,1.064491 1.041308,0.914282 2.091344,3.161926 1.952979,4.180434 -0.08305,0.611353 -0.214132,0.454926 -0.958529,-1.143883 -0.804336,-1.727547 -1.978869,-3.307292 -2.458955,-3.307292 -0.372463,0 -1.01171,1.530769 -1.21446,2.908197 -0.108923,0.739995 -0.317104,1.311111 -0.462625,1.269145 -0.423104,-0.122014 -0.16994,-2.802065 0.370318,-3.920268 l 0.493944,-1.022348 -0.744348,-0.163486 c -0.647274,-0.142165 -3.956373,0.321082 -3.956373,0.55386 0,0.04698 0.139646,0.391906 0.310323,0.766503 0.474341,1.041064 -0.137018,1.503324 -0.659543,0.498694 -0.511232,-0.982916 -1.443067,-1.840598 -2.38924,-2.199108 l -0.754085,-0.285728 0.728034,0.863416 c 0.851226,1.009516 1.443578,2.316423 1.436802,3.170021 -0.0035,0.443449 -0.215325,0.217334 -0.797512,-0.851398 -0.776672,-1.42575 -1.944891,-2.641909 -2.540274,-2.644519 -0.455418,-0.002 -0.661195,0.910677 -0.924349,4.099728 -0.132089,1.600729 -0.307471,3.640009 -0.389738,4.531733 -0.120508,1.306243 -0.04622,1.82392 0.382301,2.663881 0.622797,1.220783 2.485666,2.990129 3.150648,2.992474 0.254242,9e-4 0.818363,0.187311 1.253602,0.414253 1.881498,0.981052 5.511417,1.148017 8.205956,0.377448 z M 76.029906,19.290283 c 0,-0.418414 0.734609,-1.105773 0.950768,-0.889615 0.175831,0.175831 -0.468868,1.254093 -0.749829,1.254093 -0.110516,0 -0.200939,-0.164015 -0.200939,-0.364478 z"
         id="path3489" />
      <path
         style="fill:#332b9d;stroke-width:0.264583"
         d="M 77.847226,47.401248 C 77.340295,46.894317 77.30003,46.64695 77.448858,44.953852 l 0.165561,-1.883465 -0.494433,1.079129 c -0.680014,1.484168 -1.742093,2.274695 -2.921976,2.174886 -1.483495,-0.125494 -1.596931,-0.618225 -1.569954,-6.819444 0.01879,-4.318699 -0.04973,-5.460252 -0.337812,-5.628234 -3.116073,-1.816991 -3.906079,-2.392944 -4.577731,-3.337386 -0.982782,-1.381938 -1.199617,-3.516506 -0.575354,-5.663896 0.236559,-0.813736 0.42608,-2.422249 0.42608,-3.616254 0,-2.44141 0.419617,-3.728336 1.431942,-4.391637 0.77268,-0.506279 2.231746,-0.365938 3.290619,0.316512 0.557619,0.359389 0.855736,0.354096 2.899628,-0.05148 3.039122,-0.603061 4.727116,-0.404275 7.507658,0.884137 2.607954,1.20844 3.860661,2.463142 4.704787,4.712279 0.813489,2.167507 0.686845,5.161943 -0.308859,7.302843 -0.659258,1.417495 -0.680388,1.576997 -0.332971,2.513541 0.204026,0.550001 0.490436,1.476252 0.636465,2.058335 0.454883,1.813197 0.923927,1.876887 3.828022,0.519796 1.390298,-0.64969 2.878442,-1.181254 3.306987,-1.181254 1.510755,0 2.094479,1.430307 1.099796,2.694841 -0.281008,0.357246 -1.767826,1.296037 -3.304038,2.086202 -2.342603,1.204941 -2.793636,1.536904 -2.796365,2.058137 -0.0053,1.021287 -0.835297,2.468216 -2.261449,3.942591 -1.276837,1.320011 -1.410995,1.389062 -2.698818,1.389062 -0.82365,0 -1.503895,-0.148706 -1.734323,-0.379134 -0.329122,-0.329121 -0.456356,-0.274683 -0.964556,0.412694 -0.71226,0.963382 -2.054818,1.816195 -2.861295,1.817534 -0.327422,5.29e-4 -0.849081,-0.252778 -1.159243,-0.562941 z m 1.834465,-0.599606 c 1.001572,-0.517933 1.633306,-1.280668 2.034982,-2.456969 0.279832,-0.819483 0.636472,-1.170241 1.893073,-1.861858 1.945129,-1.070572 2.456981,-1.117153 0.895914,-0.08153 -1.265281,0.839395 -1.647143,1.476959 -1.415394,2.36317 0.176074,0.673309 1.317078,0.751446 2.446263,0.167521 1.394524,-0.721138 2.930152,-3.000201 3.289695,-4.882321 0.20742,-1.085791 -0.699026,-3.196556 -1.457955,-3.395021 -0.478189,-0.125049 -0.621505,-0.495253 -1.306103,-3.373829 -0.301316,-1.266965 -0.771843,-2.189058 -0.771843,-1.512582 0,0.456256 -2.230581,1.494186 -4.365625,2.031405 -1.789274,0.450217 -4.817489,0.579261 -6.251719,0.266411 -0.650133,-0.141815 -0.706042,-0.07749 -0.857682,0.986739 -0.3017,2.117372 -0.246376,9.35862 0.0761,9.961182 0.384692,0.718801 0.565897,0.713801 1.44296,-0.03984 0.873675,-0.750729 1.405002,-2.426029 0.945151,-2.980115 -0.491904,-0.592709 0.439973,-0.486368 1.504777,0.171717 0.67001,0.414088 0.861672,0.692798 0.773279,1.124479 -0.373394,1.823524 -0.423685,3.150256 -0.132704,3.500869 0.386519,0.465727 0.376809,0.465645 1.256827,0.01056 z m 6.137799,-5.318755 c 0,-0.07276 0.05953,-0.132292 0.132291,-0.132292 0.07276,0 0.132292,0.05953 0.132292,0.132292 0,0.07276 -0.05953,0.132292 -0.132292,0.132292 -0.07276,0 -0.132291,-0.05953 -0.132291,-0.132292 z m -11.377084,-4.7625 c 0,-0.07276 0.05953,-0.132292 0.132292,-0.132292 0.07276,0 0.132291,0.05953 0.132291,0.132292 0,0.07276 -0.05953,0.132291 -0.132291,0.132291 -0.07276,0 -0.132292,-0.05953 -0.132292,-0.132291 z M 74.177823,36.19122 c 0,-0.07276 0.05953,-0.132292 0.132291,-0.132292 0.07276,0 0.132292,0.05953 0.132292,0.132292 0,0.07276 -0.05953,0.132292 -0.132292,0.132292 -0.07276,0 -0.132291,-0.05953 -0.132291,-0.132292 z m 5.440969,-0.209848 c 0.09936,-0.260938 0.247304,-0.407782 0.328766,-0.32632 0.08146,0.08146 1.67e-4,0.294956 -0.180654,0.474432 -0.261306,0.259362 -0.291697,0.228971 -0.148112,-0.148112 z m 1.438197,-1.509944 c 0,-0.14552 0.12609,-0.264583 0.280199,-0.264583 0.154109,0 0.206613,0.119063 0.116677,0.264583 -0.08994,0.145521 -0.216026,0.264584 -0.280199,0.264584 -0.06417,0 -0.116677,-0.119063 -0.116677,-0.264584 z m 14.025457,1.45215 c 0.305036,-0.367547 0.302035,-0.47102 -0.01955,-0.674514 -0.683816,-0.432699 -1.434024,-0.264021 -3.70115,0.832173 -1.22923,0.594354 -2.262658,1.108221 -2.296507,1.141927 -0.03385,0.03371 0.07646,0.426904 0.245135,0.873773 l 0.306681,0.812489 2.552541,-1.275851 c 1.403897,-0.701718 2.714682,-1.471217 2.912852,-1.709997 z M 80.556439,33.125053 c 2.438074,-0.435709 4.357969,-1.603138 5.393576,-3.279669 0.732838,-1.186381 0.795088,-1.477012 0.790079,-3.688715 -0.0049,-2.169422 -0.08525,-2.553901 -0.833376,-3.988366 -0.455366,-0.873125 -1.153861,-1.885156 -1.552212,-2.248958 -0.39835,-0.363802 -0.671896,-0.542396 -0.60788,-0.396875 0.06402,0.145521 0.304211,0.681302 0.533767,1.190625 0.666884,1.479634 0.812877,2.116666 0.485092,2.116666 -0.162753,0 -0.458098,-0.386953 -0.656322,-0.859895 -0.932187,-2.224097 -3.281627,-4.432491 -4.126152,-3.878444 -0.322962,0.211878 -0.309841,0.29216 0.08585,0.525264 1.164797,0.686194 2.339636,2.492867 2.696656,4.14693 0.301468,1.396697 -0.213351,0.983576 -0.886625,-0.71148 -0.791921,-1.993762 -1.884235,-3.347734 -2.507751,-3.108469 -0.581983,0.223328 -1.220774,1.748829 -1.29732,3.09814 -0.03275,0.577221 -0.175621,1.011484 -0.3175,0.965028 -0.593726,-0.194405 0.0605,-3.80736 0.800663,-4.421639 0.549771,-0.45627 0.472555,-0.867565 -0.13314,-0.709173 -0.284064,0.07428 -0.555298,0.01861 -0.602742,-0.123723 -0.05537,-0.166117 -0.699436,-0.152102 -1.798624,0.03914 -2.509052,0.436539 -2.458458,0.40301 -1.986197,1.316261 0.479167,0.926607 0.497604,1.076226 0.132621,1.076226 -0.150429,0 -0.522399,-0.42184 -0.8266,-0.937423 -0.525362,-0.890421 -2.481797,-2.183452 -2.808849,-1.8564 -0.08443,0.08443 0.160608,0.481377 0.544528,0.882104 0.644981,0.673214 1.529337,2.639374 1.499618,3.334047 -0.007,0.163605 -0.360101,-0.37529 -0.78467,-1.197544 -0.758252,-1.468492 -1.858106,-2.606034 -2.519695,-2.606034 -0.555515,0 -0.916243,1.535978 -0.916243,3.901365 0,1.229195 -0.182615,2.863075 -0.405811,3.630844 -0.493368,1.697124 -0.245388,3.126252 0.805618,4.642855 0.841656,1.214511 1.268949,1.515442 3.621066,2.550228 2.081135,0.91557 5.144853,1.139239 8.178577,0.597083 z M 76.299796,18.986909 c 0.184076,-0.221798 0.389171,-0.348782 0.455766,-0.282186 0.183488,0.183488 -0.189321,0.685455 -0.509084,0.685455 -0.175444,0 -0.155372,-0.151813 0.05332,-0.403269 z"
         id="path3487" />
      <path
         style="fill:#26232c;stroke-width:0.264583"
         d="M 77.847226,47.401248 C 77.340295,46.894317 77.30003,46.64695 77.448858,44.953852 l 0.165561,-1.883465 -0.494433,1.079129 c -0.680014,1.484168 -1.742093,2.274695 -2.921976,2.174886 -1.483495,-0.125494 -1.596931,-0.618225 -1.569954,-6.819444 0.01879,-4.318699 -0.04973,-5.460252 -0.337812,-5.628234 -3.116073,-1.816991 -3.906079,-2.392944 -4.577731,-3.337386 -0.982782,-1.381938 -1.199617,-3.516506 -0.575354,-5.663896 0.236559,-0.813736 0.42608,-2.422249 0.42608,-3.616254 0,-2.44141 0.419617,-3.728336 1.431942,-4.391637 0.77268,-0.506279 2.231746,-0.365938 3.290619,0.316512 0.557619,0.359389 0.855736,0.354096 2.899628,-0.05148 3.039122,-0.603061 4.727116,-0.404275 7.507658,0.884137 2.607954,1.20844 3.860661,2.463142 4.704787,4.712279 0.813489,2.167507 0.686845,5.161943 -0.308859,7.302843 -0.659258,1.417495 -0.680388,1.576997 -0.332971,2.513541 0.204026,0.550001 0.490436,1.476252 0.636465,2.058335 0.454883,1.813197 0.923927,1.876887 3.828022,0.519796 1.390298,-0.64969 2.878442,-1.181254 3.306987,-1.181254 1.513375,0 2.094288,1.430548 1.096185,2.699434 -0.282999,0.359771 -1.77128,1.296031 -3.307293,2.080577 -2.360511,1.205672 -2.792753,1.523505 -2.792753,2.053544 0,1.022929 -0.826686,2.468303 -2.258195,3.948216 -1.276837,1.320011 -1.410995,1.389062 -2.698818,1.389062 -0.82365,0 -1.503895,-0.148706 -1.734323,-0.379134 -0.329122,-0.329121 -0.456356,-0.274683 -0.964556,0.412694 -0.71226,0.963382 -2.054818,1.816195 -2.861295,1.817534 -0.327422,5.29e-4 -0.849081,-0.252778 -1.159243,-0.562941 z m 2.435469,-0.94825 c 0.469593,-0.395137 1.13207,-1.347637 1.472172,-2.116667 0.744031,-1.682386 1.281344,-1.826553 1.299058,-0.348552 0.01479,1.233887 0.04691,1.277313 1.100615,1.488057 0.682768,0.136551 0.985029,0.0039 1.924207,-0.844614 1.255817,-1.134554 2.644934,-3.375462 2.648676,-4.272814 0.0014,-0.327422 0.159646,-0.595313 0.351734,-0.595313 0.192087,0 0.817165,-0.400205 1.389062,-0.889346 0.571897,-0.48914 1.761311,-1.25333 2.643142,-1.698201 1.92505,-0.971157 2.518416,-1.561056 1.951533,-1.940128 -0.608002,-0.406566 -1.814971,-0.101142 -4.193418,1.061144 -2.441862,1.193277 -2.803706,1.275514 -3.029,0.688406 -0.08376,-0.218281 -0.316592,-0.396875 -0.5174,-0.396875 -0.235297,0 -0.5658,-0.776061 -0.929597,-2.182812 -0.600222,-2.320968 -0.572111,-3.746246 0.109692,-5.561605 0.833924,-2.220393 0.257077,-5.86926 -1.28882,-8.152475 -0.818033,-1.208196 -3.145749,-2.42002 -5.347987,-2.784197 -1.845251,-0.305143 -2.483631,-0.311192 -4.400389,-0.04169 -1.860679,0.261616 -2.089086,0.240879 -2.910417,-0.264233 -0.588497,-0.361921 -1.160925,-0.503895 -1.685027,-0.417919 -2.089663,0.342794 -2.511547,1.107263 -2.517392,4.561602 -0.0023,1.370826 -0.168284,2.747923 -0.417412,3.463489 -0.903687,2.59565 0.435585,5.323095 3.355298,6.833108 0.932895,0.482474 1.811941,1.137318 1.953435,1.455209 0.141494,0.317891 0.365107,0.653969 0.496918,0.74684 0.131811,0.09287 0.161308,0.295624 0.06555,0.450564 -0.09576,0.15494 -0.192407,2.493619 -0.214776,5.197065 -0.03539,4.277075 0.0168,4.972829 0.401908,5.357938 0.413717,0.413715 0.490206,0.407019 1.172886,-0.102675 1.003945,-0.749554 1.601418,-2.341485 1.15005,-3.064239 -0.311782,-0.499242 -0.285695,-0.5239 0.378026,-0.357317 0.392105,0.09841 0.974855,0.350559 1.295002,0.560327 0.520447,0.34101 0.563748,0.528853 0.408925,1.77398 -0.09524,0.765921 -0.257361,1.585592 -0.360276,1.821489 -0.206507,0.473353 0.447413,1.290887 1.03254,1.290887 0.196722,0 0.741888,-0.323295 1.211482,-0.718431 z"
         id="path3485" />
    </g>
  </g>
</svg>
