<?xml version="1.0" encoding="utf-8"?>
<svg version="1.1" id="Ebene_1" xmlns="http://www.w3.org/2000/svg" xmlns:xlink="http://www.w3.org/1999/xlink" x="0px" y="0px"
	 viewBox="0 0 72.66 42.18" style="enable-background:new 0 0 72.66 42.18;" xml:space="preserve">
<style type="text/css">
	.st0{fill:#FFFFFF;}
	.st1{fill:#000000;}
</style>
<g id="smash" transform="translate(-291.17 -343.81)">
	<g>
		<g>
			<path class="st0" d="M337.54,379c-0.19,0.11-0.21,0.39-0.23,0.59c-0.09,1.07,0.81,1.49,1.91,3.21c0.78,1.21,0.88,1.86,1.76,2.34
				c0.37,0.2,0.72,0.29,0.97,0.33l1.17-0.48c-0.8-1.74-1.74-2.96-2.47-3.77C340.4,380.94,338.26,378.56,337.54,379z"/>
			<path class="st0" d="M335.52,370.06c1.43-0.74,1.59-1.14,0.79-1.94c-0.19-0.19-0.52-0.29-0.95-0.29c-0.31,0-0.67,0.05-1.07,0.15
				c-0.83,0.21-2.3,0.52-3.28,0.68c-1.73,0.29-2.39,1.39-1.43,2.36c0.12,0.12,0.44,0.17,0.87,0.17
				C331.8,371.2,334.31,370.69,335.52,370.06L335.52,370.06z"/>
			<path class="st0" d="M363.44,374.89c-0.27-0.97-0.46-2.23-0.46-2.75l-0.21-15.73c-0.14-0.71-0.39-2.05-0.55-2.99
				c-0.19-1.09-0.47-2.73-2.25-2.73c-0.38,0-0.78,0.08-1.27,0.19c-0.94,0.21-2.37,0.73-3.26,1.18c-0.56,0.29-2.25,0.72-3.66,0.88
				l-2.17,0.24l-3.55-2.54c-4.36-3.12-5.02-3.12-5.37-3.12c-1.61,0-5.21,2.79-6.3,3.97c-0.41,0.44-0.59,0.64-1.38,0.72
				c0.23-0.3,0.34-0.69,0.28-1.09l-0.47-2.98c-0.52-3.31-0.63-3.47-0.82-3.73c-0.27-0.38-0.71-0.61-1.18-0.61
				c-0.35,0-0.74,0-8.09,3.75c0,0-1.1,0.44-2.18,0.91c-0.05-0.36-0.46-0.75-0.51-1.17c-0.04-0.31-0.16-0.72-0.54-1.09
				c0.09-0.51-0.08-0.91-0.18-1.09c-0.18-0.33-0.65-0.88-1.7-0.88c-0.63,0-1.48,0.19-2.6,0.58c-1.56,0.54-2.45,1.54-2.45,2.73
				c0,0.3-0.11,0.88-0.22,1.16c-0.08,0.2-0.19,0.49-0.22,0.81c-0.47,0.02-0.93,0.27-1.18,0.71l-3.88,6.66
				c-1.02,1.74-1.96,3.39-2.66,4.67c-0.11-0.15-0.25-0.33-0.43-0.56c-0.43-0.51-0.67-0.75-0.67-0.75c-0.98-0.94-2.25-2.04-2.61-2.35
				c-0.06-0.48-0.01-0.75,0.07-0.92c0.72,0.31,1.89,0.76,2.1,0.45c0.2-0.29-0.59-1.16-1.05-1.63c0,0,0,0,0,0
				c1.21,1.05,1.96,1.48,2.25,1.27c0.46-0.34-0.32-2.37-2.32-6.05c0.39-0.26,0.55-0.62,0.62-0.88c0.3-1.2-0.8-1.8-1.45-2.17
				c-0.54-0.3-1.12-0.59-1.78-0.59c-0.92,0-1.56,0.58-1.9,0.88c-0.35,0.31-0.93,0.84-0.96,1.71c-0.01,0.2,0.11,0.33,0.03,0.41
				c-0.14,0.15-0.57-0.13-1.51-0.45c-0.85-0.28-1.22-0.29-1.39-0.29c-0.29,0-0.58,0.04-0.85,0.13c-1.12,0.36-1.34,1.1-1.38,1.51
				c-0.11,1.33,1.05,1.92,4.14,3.5l0.42,0.21c0.18,0.09,0.34,0.18,0.5,0.26c-0.43,0.17-1.03,0.65-1.81,1.97
				c-0.09,0.16-0.19,0.29-0.27,0.38c-0.13-0.02-0.25-0.03-0.38-0.03c-0.86,0-1.57,0.53-1.77,1.32c-0.27,1.05,0.41,2.23,1.69,2.92
				c1.48,0.8,4.21,0.9,5.32,0.9l3.33,0.01c0,0,0.01,0,0.01,0c0.66,0,1.09,0.01,1.46-0.07c0,0,0,0,0,0
				c-0.09,0.17-0.18,0.34-0.25,0.48c-0.24,0.48-0.9,1.74,0.3,2.44c0.07,0.04,0.23,0.13,5.78,2.48c2.24,0.95,3.96,1.72,4.89,2.15
				c-0.21,0.76-0.6,1.91-0.91,2.68c-0.91-0.32-2.39-0.84-4.3-1.52c-5.56-1.98-5.91-1.98-6.14-1.98c-0.78,0-1.29,0.39-2.8,2.67
				c-1.58,2.39-1.58,2.91-1.58,3.23c0,0.97,0.8,1.42,1.81,1.99c0.73,0.4,1.68,0.89,2.69,1.36c0.95,0.44,1.76,0.83,2.38,1.13
				c-0.57,0.65-1.18,1.55-0.77,2.49c0.05,0.13,0.12,0.24,0.21,0.35c0.02,0.29,0.13,0.52,0.19,0.65c0.22,0.39,0.69,0.86,1.71,0.86
				c0.27,0,0.59-0.03,0.99-0.09c0.18-0.03,0.34-0.04,0.47-0.04c0.38,0.58,1.02,0.93,1.75,0.93c0.31,0,0.63-0.06,0.94-0.19
				c0.34-0.14,2.95-1.06,6.14-2.14c0.56-0.19,1.08-0.36,1.55-0.51c0.18,0.49,0.64,1.02,1.65,1.02c0.77,0,2.29-0.27,3.74-0.66
				c0.25,0.09,0.77,0.38,1.33,0.86c2.05,1.8,2.7,1.8,3.01,1.8c0.24,0,0.86,0,2.96-1.43c0.92-0.63,1.49-1.08,1.82-1.69
				c0.45-0.82,0.34-1.61,0.14-2.35c-0.05-0.19-0.11-0.36-0.17-0.53c1.06-0.25,2.25-0.61,3.19-0.97c1.84-0.69,2.65-0.91,4.14-0.91
				c0.58,0,1.31,0.03,2.43,0.11c1.22,0.09,2.11,0.14,2.79,0.14c1.63,0,2.43-0.32,3.3-1.31c0.28-0.32,0.94-0.57,3.24-0.77
				c0.83-0.07,1.45-0.12,1.95-0.12c1.08,0,1.53,0.21,3.82,1.55c3.27,1.91,3.86,1.91,4.14,1.91c0.4,0,0.77-0.15,1.05-0.43
				C363.88,377.81,364.05,377.09,363.44,374.89z"/>
			<path class="st0" d="M338.12,383.06c0.03-0.1,0.09-0.3,0.1-0.6c0-0.27-0.05-0.51-0.13-0.73c-0.07-0.19-0.58-1.67-1.22-1.64
				c-0.15,0.01-0.41,0.29-0.95,0.86c-0.36,0.38-0.34,0.39-0.55,0.59c-0.24,0.22-0.44,0.36-0.71,0.68c-0.09,0.11-0.16,0.19-0.25,0.31
				c-0.05,0.07-0.16,0.23-0.25,0.41c0,0-0.19,0.37-0.18,0.75c0,1.01,1.31,1.83,1.9,1.98c0.44,0.12,0.76,0.21,0.84,0.23
				c0.16,0.06,0.33,0.09,0.5,0.09c0.5,0,0.97-0.27,1.23-0.7C338.83,384.65,337.88,383.97,338.12,383.06z"/>
			<path class="st0" d="M328.52,362.25L328.52,362.25c0.17-0.27,0.07-0.78-0.23-1.14c-0.42-0.5-0.05-1.05,1.69-2.54
				c2.02-1.72,2.4-2.65,1.15-2.65c-0.31,0-0.72,0.06-1.22,0.17c-1.07,0.24-2.3,1.06-3.31,2.21c-1.66,1.88-1.86,2.4-1.36,3.69
				c0.18,0.48,1.06,0.75,1.88,0.75C327.73,362.75,328.31,362.59,328.52,362.25z"/>
			<path class="st0" d="M335.4,365.32c0-0.42,0.04-0.62-0.35-0.62c-0.36,0-1.07,0.16-2.5,0.47c-0.88,0.19-1.52,0.28-2,0.28
				c-0.5,0-0.83-0.1-1.08-0.31c-0.19-0.16-0.43-0.23-0.69-0.23c-0.88,0-1.94,0.83-1.94,1.76c0,0.57,0.85,0.85,2.1,0.85
				c1.18,0,2.72-0.26,4.24-0.77C334.41,366.32,335.4,365.69,335.4,365.32z"/>
			<path class="st0" d="M351.81,360.37c-3.66,0-5-0.16-5.03-0.59c-0.05-0.86-0.44-2.9-0.57-2.97c-0.06-0.03-1.55-1.07-3.32-2.31
				l-3.21-2.26l-3.52,3.19c-3.1,2.81-3.54,3.42-3.72,5.14c-0.11,1.07-0.13,2.04-0.05,2.15c0.02,0.02,0.06,0.03,0.12,0.03
				c0.23,0,0.71-0.15,1.23-0.38c0.89-0.4,1.19-0.91,1.19-1.98c0-1.32,0.14-1.44,1.61-1.44c1.36,0,1.67-0.21,1.96-1.31
				c0.14-0.53,0.23-0.83,0.37-0.83c0.19,0,0.46,0.6,1.09,2c0.91,2.03,1.02,2.73,0.62,3.89c-0.39,1.12-0.33,1.66,0.31,2.63
				c0.53,0.81,1.29,1.22,2.21,1.22c1.01,0,2.2-0.49,3.48-1.46l0,0c1.28-0.97,1.74-1.29,3.13-1.29c0.63,0,1.45,0.06,2.63,0.16
				c1.28,0.11,2.14,0.17,2.72,0.17c1.13,0,1.24-0.25,1.43-0.98C357.23,360.38,357.22,360.37,351.81,360.37z"/>
			<path class="st0" d="M337.1,370.89c-0.38,0-0.98,0.18-2.02,0.56c-1.25,0.45-2.65,0.82-3.11,0.82c0,0,0,0,0,0c0,0,0,0,0,0
				c-0.84,0-1.12,0.97-0.47,1.63c0.12,0.12,0.48,0.18,0.98,0.18c1.21,0,3.23-0.34,4.52-0.83l0,0c1.37-0.52,1.5-0.83,0.82-1.92
				C337.62,371.03,337.44,370.89,337.1,370.89z"/>
			<path class="st0" d="M319.35,359.99c-0.7-2.1-1.41-3.77-1.6-3.77c0,0-0.01,0-0.01,0c-0.45,0.17-3.74,4.19-3.72,4.55
				c0.02,0.29,5.93,3.19,6.48,3.19c0.02,0,0.03,0,0.03-0.01C320.61,363.91,320.07,362.12,319.35,359.99L319.35,359.99z"/>
			<path class="st0" d="M353.07,366.36c-0.41,0-0.84,0.08-1.22,0.25c-0.4,0.18-0.76,0.27-1.1,0.27c-0.32,0-0.61-0.08-0.9-0.24
				c-0.18-0.1-0.39-0.16-0.64-0.16c-0.66,0-1.64,0.39-3.46,1.3c-2.69,1.35-3.23,1.82-3.23,2.81c0,1.03,0.21,1.18,1.6,1.18
				c1.33,0,1.82-0.32,2.92-1.9l0,0c1-1.45,2.07-2.1,3.8-2.1c0.86,0,1.88,0.16,3.13,0.46c0.29,0.07,0.52,0.11,0.7,0.11
				c0.39,0,0.53-0.19,0.53-0.61C355.21,366.93,354.18,366.36,353.07,366.36z"/>
		</g>
		<path id="path2838_00000129924777771533330700000001580093550941547436_" class="st1" d="M336.24,384.29
			c-0.46-0.12-0.83-0.39-0.83-0.6s0.37-0.67,0.83-1.02c0.46-0.35,0.68-0.46,0.49-0.23c-0.19,0.22-0.13,0.8,0.14,1.29
			c0.26,0.49,0.41,0.86,0.34,0.83S336.69,384.41,336.24,384.29L336.24,384.29z M340.72,383.52c-1.18-1.26-1.33-1.84-0.38-1.47
			c0.55,0.21,1.99,2.57,1.56,2.57C341.82,384.62,341.28,384.12,340.72,383.52L340.72,383.52z M309.6,383.06
			c-0.17-0.45-0.75-0.59-1.79-0.44c-1.07,0.16-1.44,0.06-1.2-0.31c0.18-0.3,0.07-0.54-0.25-0.54c-0.32,0-0.09-0.53,0.53-1.19
			c0.61-0.65,1.02-1.26,0.91-1.34c-0.11-0.09-1.86-0.93-3.88-1.88c-2.03-0.95-3.68-1.87-3.68-2.05c0-0.55,2.59-4.47,2.95-4.47
			c0.18,0,2.73,0.85,5.67,1.9c2.93,1.05,5.38,1.9,5.43,1.9c0.4,0,2.11-4.94,1.8-5.22c-0.22-0.19-2.85-1.39-5.86-2.66
			c-3.01-1.27-5.53-2.35-5.62-2.4c-0.08-0.05,1.6-3.09,3.73-6.75l3.88-6.66l1.92,0.82l1.92,0.82l7.34-3.75
			c4.04-2.06,7.39-3.68,7.45-3.59c0.06,0.09,0.32,1.5,0.58,3.14l0.47,2.98l-1.69,0.44c-0.93,0.24-2.3,0.59-3.05,0.77
			c-1.04,0.25-1.99,1.3-3.99,4.37l-2.63,4.04l0.89,1.65c0.5,0.92,0.83,2.35,0.75,3.24c-0.1,1.21,0.15,1.84,1.09,2.65
			c0.92,0.8,1.22,1.52,1.22,2.89c0,1.61,0.19,1.91,1.64,2.61c1.11,0.53,1.88,1.36,2.36,2.57c0.55,1.37,1.02,1.83,2.01,1.94
			c0.95,0.11,1.39,0.5,1.64,1.47c0.31,1.15,0.14,1.46-1.39,2.5c-0.95,0.65-1.93,1.18-2.16,1.18c-0.23,0-1.16-0.65-2.07-1.45
			c-0.93-0.82-1.99-1.35-2.44-1.22c-1.87,0.52-3.88,0.82-3.88,0.58c0-0.14,0.7-0.62,1.55-1.07c2.85-1.48,0.62-1.15-4.88,0.72
			c-3,1.02-5.8,2-6.23,2.17C310.16,383.59,309.75,383.45,309.6,383.06L309.6,383.06z M319.35,359.99c-0.72-2.13-1.44-3.83-1.61-3.77
			c-0.45,0.17-3.74,4.19-3.72,4.55c0.02,0.3,6.28,3.36,6.51,3.18C320.61,363.91,320.07,362.12,319.35,359.99L319.35,359.99z
			 M328.86,375.63c-0.59-1.42-1.36-2.45-1.96-2.65c-0.74-0.24-1-0.71-1-1.86c0-1.14-0.35-1.8-1.32-2.52
			c-0.98-0.72-1.36-1.44-1.45-2.76c-0.07-0.98-0.41-2.47-0.76-3.32c-0.61-1.47-0.55-1.69,1.52-5.17l2.16-3.64h4.12
			c3.84,0,4.2-0.09,5.28-1.25c1.32-1.43,4.43-3.51,5.25-3.51c0.3,0,2.35,1.28,4.54,2.85l3.99,2.85l2.72-0.31
			c1.5-0.17,3.36-0.63,4.15-1.03c0.78-0.4,2.1-0.88,2.93-1.06c1.44-0.33,1.52-0.27,1.8,1.38c0.16,0.95,0.41,2.31,0.55,3.03
			c0.22,1.1,0.1,1.31-0.77,1.31c-0.94,0-1,0.17-0.72,1.86c0.25,1.48,0.01,2.58-1.15,5.34c-0.8,1.91-1.46,3.72-1.46,4.02
			c0,0.3,0.96,0.79,2.14,1.09c1.88,0.47,2.14,0.7,2.14,1.84c0,0.72,0.23,2.12,0.51,3.13c0.28,1.01,0.42,1.92,0.3,2.03
			c-0.11,0.11-1.67-0.65-3.46-1.7c-3.18-1.86-3.34-1.9-6.61-1.62c-2.54,0.21-3.55,0.51-4.19,1.25c-0.77,0.88-1.21,0.94-4.92,0.68
			c-3.59-0.25-4.44-0.15-7.17,0.88c-1.71,0.64-3.8,1.17-4.65,1.17C329.97,377.96,329.74,377.74,328.86,375.63L328.86,375.63z
			 M336.98,373.24c1.37-0.52,1.5-0.83,0.82-1.92c-0.38-0.61-0.73-0.59-2.73,0.12c-1.26,0.45-2.66,0.82-3.12,0.82
			c-0.84,0-1.13,0.97-0.48,1.63C331.9,374.31,335.17,373.93,336.98,373.24L336.98,373.24z M347.05,369.88
			c1.5-2.16,3.13-2.55,6.93-1.64c0.95,0.23,1.23,0.11,1.23-0.5c0-1.11-1.95-1.76-3.36-1.12c-0.78,0.36-1.41,0.37-2,0.03
			c-0.67-0.37-1.59-0.12-4.09,1.14c-2.69,1.35-3.23,1.82-3.23,2.81c0,1.03,0.21,1.18,1.6,1.18
			C345.46,371.78,345.96,371.46,347.05,369.88L347.05,369.88z M335.52,370.06c1.43-0.74,1.59-1.14,0.79-1.94
			c-0.33-0.33-1.07-0.38-2.02-0.14c-0.83,0.21-2.3,0.52-3.28,0.68c-1.73,0.29-2.39,1.39-1.43,2.36
			C330.06,371.51,333.92,370.89,335.52,370.06L335.52,370.06z M333.18,366.75c1.23-0.42,2.22-1.06,2.22-1.43
			c0-0.8,0.15-0.79-2.85-0.15c-1.79,0.38-2.59,0.38-3.08-0.03c-0.85-0.71-2.63,0.32-2.63,1.52
			C326.85,367.77,330.06,367.81,333.18,366.75L333.18,366.75z M346.58,365.08c1.86-1.41,1.98-1.44,5.76-1.12
			c3.77,0.31,3.86,0.29,4.15-0.8c0.74-2.78,0.73-2.78-4.68-2.78c-3.66,0-5-0.16-5.03-0.59c-0.05-0.86-0.44-2.9-0.57-2.97
			c-0.06-0.03-1.55-1.07-3.32-2.31l-3.21-2.26l-3.52,3.19c-3.1,2.81-3.54,3.42-3.72,5.14c-0.11,1.07-0.13,2.04-0.05,2.15
			c0.09,0.11,0.7-0.05,1.35-0.35c0.89-0.4,1.19-0.91,1.19-1.98c0-1.32,0.14-1.44,1.61-1.44c1.36,0,1.67-0.21,1.96-1.31
			c0.34-1.27,0.38-1.24,1.46,1.17c0.91,2.03,1.02,2.73,0.62,3.89c-0.39,1.12-0.33,1.66,0.31,2.63
			C342.01,367.03,344.13,366.94,346.58,365.08L346.58,365.08z M328.52,362.25c0.17-0.27,0.07-0.78-0.23-1.14
			c-0.42-0.5-0.05-1.05,1.69-2.54c2.51-2.15,2.49-3.06-0.08-2.48c-1.07,0.24-2.3,1.06-3.31,2.21c-1.66,1.88-1.86,2.4-1.36,3.69
			C325.56,362.84,328.04,363.04,328.52,362.25L328.52,362.25z M294.39,360.57c-1.26-0.68-1.37-1.94-0.13-1.46
			c0.32,0.12,0.96-0.4,1.41-1.16c0.45-0.76,0.96-1.37,1.15-1.36c0.18,0.01,1.51,1.08,2.94,2.37l2.61,2.35l-3.33-0.01
			C297,361.29,295.2,361.01,294.39,360.57L294.39,360.57z M295.96,353.52c-3.39-1.73-3.86-2.1-2.98-2.38
			c0.79-0.25,1.79,0.2,4.14,1.88c1.7,1.22,3.1,2.3,3.1,2.41C300.22,355.7,300.37,355.77,295.96,353.52L295.96,353.52z
			 M299.36,352.14c-1.91-1.95-1.97-2.09-1.17-2.82c0.74-0.66,1-0.68,2.03-0.1c0.9,0.5,0.99,0.66,0.36,0.68
			c-0.89,0.02-1.07,0.5-0.45,1.23c0.43,0.5,1.57,3.07,1.37,3.07C301.43,354.19,300.47,353.27,299.36,352.14L299.36,352.14z
			 M313.7,349.22c0.17-0.44,0.31-1.2,0.31-1.67c0-0.54,0.56-1.06,1.5-1.39c1.92-0.67,2.93-0.67,2.51,0.01
			c-0.18,0.29-0.03,0.71,0.33,0.94c0.52,0.32,0.38,0.68-0.67,1.73c-1.03,1.03-1.41,1.18-1.72,0.68c-0.32-0.52-0.61-0.53-1.48-0.06
			C313.52,349.95,313.43,349.92,313.7,349.22L313.7,349.22z"/>
	</g>
</g>
</svg>
